<?xml version="1.0" standalone="no"?>
<!DOCTYPE svg PUBLIC "-//W3C//DTD SVG 1.1//EN"
"http://www.w3.org/Graphics/SVG/1.1/DTD/svg11.dtd">

<svg width="361" height="476" view_box="0 0 361 476"
xmlns="http://www.w3.org/2000/svg"
xmlns:link="http://www.w3.org/1999/xlink">\n\n<desc>Généré par Mocodo 2.3.7 le Mon, 29 Jul 2019 03:08:36</desc>

<rect id="frame" x="0" y="0" width="361" height="476" fill="#f5f5f5" stroke="none" stroke-width="0"/>

<!-- Association belongs to -->
<line x1="186" y1="221" x2="186" y2="399" stroke="#bf812d" stroke-width="2"/>
<text x="191.0" y="323" fill="#01665e" font-family="Verdana" font-size="12">1,N</text>
<line x1="62" y1="399" x2="186" y2="399" stroke="#bf812d" stroke-width="2"/>
<text x="120" y="416.0" fill="#01665e" font-family="Verdana" font-size="12">0,N</text>
<g id="association-belongs to">
	<path d="M 211 374 a 14 14 90 0 1 14 14 V 399 h -78 V 388 a 14 14 90 0 1 14 -14" fill="#dfc27d" stroke="#dfc27d" stroke-width="0"/>
	<path d="M 225 399.0 v 11 a 14 14 90 0 1 -14 14 H 161 a 14 14 90 0 1 -14 -14 V 399.0 H 78" fill="#f6e8c3" stroke="#f6e8c3" stroke-width="0"/>
	<rect x="147" y="374" width="78" height="50" fill="none" rx="14" stroke="#bf812d" stroke-width="2"/>
	<line x1="147" y1="399" x2="225" y2="399" stroke="#bf812d" stroke-width="1"/>
	<text x="154" y="391.7" fill="#000000" font-family="Verdana" font-size="12">belongs to</text>
</g>

<!-- Association make -->
<line x1="62" y1="60" x2="62" y2="221" stroke="#bf812d" stroke-width="2"/>
<text x="67.0" y="128" fill="#01665e" font-family="Verdana" font-size="12">1,N</text>
<line x1="186" y1="221" x2="62" y2="221" stroke="#bf812d" stroke-width="2"/>
<text x="111" y="238.0" fill="#01665e" font-family="Verdana" font-size="12">1,1</text>
<g id="association-make">
	<path d="M 72 196 a 14 14 90 0 1 14 14 V 221 h -48 V 210 a 14 14 90 0 1 14 -14" fill="#dfc27d" stroke="#dfc27d" stroke-width="0"/>
	<path d="M 86 221.0 v 11 a 14 14 90 0 1 -14 14 H 52 a 14 14 90 0 1 -14 -14 V 221.0 H 48" fill="#f6e8c3" stroke="#f6e8c3" stroke-width="0"/>
	<rect x="38" y="196" width="48" height="50" fill="none" rx="14" stroke="#bf812d" stroke-width="2"/>
	<line x1="38" y1="221" x2="86" y2="221" stroke="#bf812d" stroke-width="1"/>
	<text x="45" y="213.7" fill="#000000" font-family="Verdana" font-size="12">make</text>
</g>

<!-- Association is a -->
<line x1="186" y1="221" x2="186" y2="60" stroke="#bf812d" stroke-width="2"/>
<text x="191.0" y="128" fill="#01665e" font-family="Verdana" font-size="12">1,1</text>
<line x1="308" y1="60" x2="186" y2="60" stroke="#bf812d" stroke-width="2"/>
<text x="237" y="77.0" fill="#01665e" font-family="Verdana" font-size="12">0,N</text>
<g id="association-is a">
	<path d="M 190 35 a 14 14 90 0 1 14 14 V 60 h -36 V 49 a 14 14 90 0 1 14 -14" fill="#dfc27d" stroke="#dfc27d" stroke-width="0"/>
	<path d="M 204 60.0 v 11 a 14 14 90 0 1 -14 14 H 182 a 14 14 90 0 1 -14 -14 V 60.0 H 36" fill="#f6e8c3" stroke="#f6e8c3" stroke-width="0"/>
	<rect x="168" y="35" width="36" height="50" fill="none" rx="14" stroke="#bf812d" stroke-width="2"/>
	<line x1="168" y1="60" x2="204" y2="60" stroke="#bf812d" stroke-width="1"/>
	<text x="175" y="52.7" fill="#000000" font-family="Verdana" font-size="12">is a</text>
</g>

<!-- Association is available -->
<line x1="186" y1="221" x2="308" y2="221" stroke="#bf812d" stroke-width="2"/>
<text x="240" y="238.0" fill="#01665e" font-family="Verdana" font-size="12">1,N</text>
<line x1="308" y1="399" x2="308" y2="221" stroke="#bf812d" stroke-width="2"/>
<text x="313.0" y="357" fill="#01665e" font-family="Verdana" font-size="12">0,N</text>
<g id="association-is available">
	<path d="M 335 196 a 14 14 90 0 1 14 14 V 221 h -82 V 210 a 14 14 90 0 1 14 -14" fill="#dfc27d" stroke="#dfc27d" stroke-width="0"/>
	<path d="M 349 221.0 v 11 a 14 14 90 0 1 -14 14 H 281 a 14 14 90 0 1 -14 -14 V 221.0 H 82" fill="#f6e8c3" stroke="#f6e8c3" stroke-width="0"/>
	<rect x="267" y="196" width="82" height="50" fill="none" rx="14" stroke="#bf812d" stroke-width="2"/>
	<line x1="267" y1="221" x2="349" y2="221" stroke="#bf812d" stroke-width="1"/>
	<text x="274" y="213.7" fill="#000000" font-family="Verdana" font-size="12">is available</text>
</g>

<!-- Entity CATEGORY -->
<g id="entity-CATEGORY">
	<g id="frame-CATEGORY">
		<rect x="9" y="331" width="106" height="25" fill="#80cdc1" stroke="#80cdc1" stroke-width="0"/>
		<rect x="9" y="356.0" width="106" height="111" fill="#c7eae5" stroke="#c7eae5" stroke-width="0"/>
		<rect x="9" y="331" width="106" height="136" fill="none" stroke="#35978f" stroke-width="2"/>
		<line x1="9" y1="356" x2="115" y2="356" stroke="#35978f" stroke-width="1"/>
	</g>
	<text x="28" y="348.7" fill="#000000" font-family="Verdana" font-size="12">CATEGORY</text>
	<text x="14" y="373.7" fill="#000000" font-family="Verdana" font-size="12">category_name</text>
	<line x1="14" y1="376" x2="109" y2="376" stroke="#000000" stroke-width="1"/>
	<text x="14" y="390.7" fill="#000000" font-family="Verdana" font-size="12">subtitle</text>
	<text x="14" y="407.8" fill="#000000" font-family="Verdana" font-size="12">image</text>
	<text x="14" y="424.8" fill="#000000" font-family="Verdana" font-size="12">home_order</text>
</g>

<!-- Entity BRAND -->
<g id="entity-BRAND">
	<g id="frame-BRAND">
		<rect x="18" y="9" width="88" height="25" fill="#80cdc1" stroke="#80cdc1" stroke-width="0"/>
		<rect x="18" y="34.0" width="88" height="77" fill="#c7eae5" stroke="#c7eae5" stroke-width="0"/>
		<rect x="18" y="9" width="88" height="102" fill="none" stroke="#35978f" stroke-width="2"/>
		<line x1="18" y1="34" x2="106" y2="34" stroke="#35978f" stroke-width="1"/>
	</g>
	<text x="40" y="26.7" fill="#000000" font-family="Verdana" font-size="12">BRAND</text>
	<text x="23" y="51.7" fill="#000000" font-family="Verdana" font-size="12">brand_name</text>
	<line x1="23" y1="54" x2="100" y2="54" stroke="#000000" stroke-width="1"/>
	<text x="23" y="68.8" fill="#000000" font-family="Verdana" font-size="12">footer_order</text>
</g>

<!-- Entity TYPE -->
<g id="entity-TYPE">
	<g id="frame-TYPE">
		<rect x="264" y="9" width="88" height="25" fill="#80cdc1" stroke="#80cdc1" stroke-width="0"/>
		<rect x="264" y="34.0" width="88" height="77" fill="#c7eae5" stroke="#c7eae5" stroke-width="0"/>
		<rect x="264" y="9" width="88" height="102" fill="none" stroke="#35978f" stroke-width="2"/>
		<line x1="264" y1="34" x2="352" y2="34" stroke="#35978f" stroke-width="1"/>
	</g>
	<text x="292" y="26.7" fill="#000000" font-family="Verdana" font-size="12">TYPE</text>
	<text x="269" y="51.7" fill="#000000" font-family="Verdana" font-size="12">type_name</text>
	<line x1="269" y1="54" x2="338" y2="54" stroke="#000000" stroke-width="1"/>
	<text x="269" y="68.8" fill="#000000" font-family="Verdana" font-size="12">footer_order</text>
</g>

<!-- Entity PRODUCT -->
<g id="entity-PRODUCT">
	<g id="frame-PRODUCT">
		<rect x="137" y="136" width="98" height="25" fill="#80cdc1" stroke="#80cdc1" stroke-width="0"/>
		<rect x="137" y="161.0" width="98" height="145" fill="#c7eae5" stroke="#c7eae5" stroke-width="0"/>
		<rect x="137" y="136" width="98" height="170" fill="none" stroke="#35978f" stroke-width="2"/>
		<line x1="137" y1="161" x2="235" y2="161" stroke="#35978f" stroke-width="1"/>
	</g>
	<text x="156" y="153.7" fill="#000000" font-family="Verdana" font-size="12">PRODUCT</text>
	<text x="142" y="178.7" fill="#000000" font-family="Verdana" font-size="12">product_name</text>
	<line x1="142" y1="181" x2="230" y2="181" stroke="#000000" stroke-width="1"/>
	<text x="142" y="195.7" fill="#000000" font-family="Verdana" font-size="12">weight</text>
	<text x="142" y="212.7" fill="#000000" font-family="Verdana" font-size="12">price</text>
	<text x="142" y="229.8" fill="#000000" font-family="Verdana" font-size="12">image</text>
	<text x="142" y="246.8" fill="#000000" font-family="Verdana" font-size="12">description</text>
	<text x="142" y="263.8" fill="#000000" font-family="Verdana" font-size="12">status</text>
</g>

<!-- Entity SIZE -->
<g id="entity-SIZE">
	<g id="frame-SIZE">
		<rect x="286" y="365" width="44" height="25" fill="#80cdc1" stroke="#80cdc1" stroke-width="0"/>
		<rect x="286" y="390.0" width="44" height="43" fill="#c7eae5" stroke="#c7eae5" stroke-width="0"/>
		<rect x="286" y="365" width="44" height="68" fill="none" stroke="#35978f" stroke-width="2"/>
		<line x1="286" y1="390" x2="330" y2="390" stroke="#35978f" stroke-width="1"/>
	</g>
	<text x="293" y="382.7" fill="#000000" font-family="Verdana" font-size="12">SIZE</text>
	<text x="291" y="407.8" fill="#000000" font-family="Verdana" font-size="12">size</text>
	<line x1="291" y1="410" x2="315" y2="410" stroke="#000000" stroke-width="1"/>
	<text x="291" y="424.8" fill="#000000" font-family="Verdana" font-size="12">stock</text>
</g>
</svg>